<mxfile host="app.diagrams.net" modified="2023-04-03T08:21:46.983Z" agent="Mozilla/5.0 (Windows NT 10.0; Win64; x64) AppleWebKit/537.36 (KHTML, like Gecko) Chrome/111.0.0.0 Safari/537.36" etag="5qF7Np0Q0XKJcQtlRTYl" version="21.1.2" type="github">
  <diagram name="페이지-1" id="7TPEcrsd8bQQI6SpCqqm">
    <mxGraphModel dx="387" dy="347" grid="1" gridSize="10" guides="1" tooltips="1" connect="1" arrows="1" fold="1" page="1" pageScale="1" pageWidth="827" pageHeight="1169" math="0" shadow="0">
      <root>
        <mxCell id="0" />
        <mxCell id="1" parent="0" />
        <mxCell id="CLf-_QWoL2Vjhj0egjH0-1" value="FAC_MAV/launch/&lt;br&gt;FAC_MAV_launcher.launch" style="rounded=1;whiteSpace=wrap;html=1;" vertex="1" parent="1">
          <mxGeometry x="324" width="180" height="60" as="geometry" />
        </mxCell>
      </root>
    </mxGraphModel>
  </diagram>
</mxfile>
